{"asset":{"version":"2.0","generator":"Blockbench 4.12.2 glTF exporter"},"scenes":[{"nodes":[24],"name":"blockbench_export"}],"scene":0,"nodes":[{"name":"torso","mesh":0},{"translation":[0,-0.3125,0],"name":"cuisse","mesh":1},{"translation":[0,-0.3125,0],"name":"mollet","mesh":2},{"translation":[0,-0.3125,0],"name":"mollet","children":[2]},{"translation":[-0.125,-0.328125,0],"name":"LeftLeg","children":[1,3]},{"translation":[0,-0.3125,0],"name":"cuisse","mesh":3},{"translation":[0,-0.3125,0],"name":"mollet","mesh":4},{"translation":[0,-0.3125,0],"name":"mollet2","children":[6]},{"translation":[0.125,-0.328125,0],"name":"RightLeg","children":[5,7]},{"translation":[0,-0.265625,0],"name":"interior","mesh":5},{"name":"exterior","mesh":6},{"translation":[0,-0.2812500000000002,0],"name":"avant-bras2","children":[10]},{"rotation":[0,0,-0.7071067811865475,0.7071067811865476],"translation":[-0.24062499999999998,0.18125000000000013,-0.009374999999999994],"name":"RightArm","children":[9,11]},{"name":"interior","mesh":7},{"name":"exterior","mesh":8},{"translation":[0,-0.015625000000000222,0],"name":"avant-bras","children":[14]},{"rotation":[0,0,0.7071067811865475,0.7071067811865476],"translation":[0.50625,0.18125000000000013,-0.009374999999999994],"name":"LeftArm","children":[13,15]},{"name":"cranium","mesh":9},{"translation":[0,-2.6775,0],"name":"hat_fabric","mesh":10},{"rotation":[0.7071067811865475,0,0,0.7071067811865476],"translation":[0.1434375,-2.10853125,0],"name":"moon","mesh":11},{"translation":[0,2.7603885135135133,-0.008567231373833388],"name":"hat","children":[18,19]},{"translation":[0,0.6146114864864864,-0.08518276862616661],"name":"head","children":[17,20]},{"translation":[0,0.984375,0.09375],"name":"Torso","children":[0,4,8,12,16,21]},{"name":"GroundedAngle","children":[22]},{"children":[23]}],"bufferViews":[{"buffer":0,"byteOffset":0,"byteLength":1152,"target":34962,"byteStride":12},{"buffer":0,"byteOffset":1152,"byteLength":1152,"target":34962,"byteStride":12},{"buffer":0,"byteOffset":2304,"byteLength":768,"target":34962,"byteStride":8},{"buffer":0,"byteOffset":3072,"byteLength":264,"target":34963},{"buffer":0,"byteOffset":3336,"byteLength":1152,"target":34962,"byteStride":12},{"buffer":0,"byteOffset":4488,"byteLength":1152,"target":34962,"byteStride":12},{"buffer":0,"byteOffset":5640,"byteLength":768,"target":34962,"byteStride":8},{"buffer":0,"byteOffset":6408,"byteLength":264,"target":34963},{"buffer":0,"byteOffset":6672,"byteLength":1152,"target":34962,"byteStride":12},{"buffer":0,"byteOffset":7824,"byteLength":1152,"target":34962,"byteStride":12},{"buffer":0,"byteOffset":8976,"byteLength":768,"target":34962,"byteStride":8},{"buffer":0,"byteOffset":9744,"byteLength":264,"target":34963},{"buffer":0,"byteOffset":10008,"byteLength":1152,"target":34962,"byteStride":12},{"buffer":0,"byteOffset":11160,"byteLength":1152,"target":34962,"byteStride":12},{"buffer":0,"byteOffset":12312,"byteLength":768,"target":34962,"byteStride":8},{"buffer":0,"byteOffset":13080,"byteLength":264,"target":34963},{"buffer":0,"byteOffset":13344,"byteLength":1152,"target":34962,"byteStride":12},{"buffer":0,"byteOffset":14496,"byteLength":1152,"target":34962,"byteStride":12},{"buffer":0,"byteOffset":15648,"byteLength":768,"target":34962,"byteStride":8},{"buffer":0,"byteOffset":16416,"byteLength":264,"target":34963},{"buffer":0,"byteOffset":16680,"byteLength":1152,"target":34962,"byteStride":12},{"buffer":0,"byteOffset":17832,"byteLength":1152,"target":34962,"byteStride":12},{"buffer":0,"byteOffset":18984,"byteLength":768,"target":34962,"byteStride":8},{"buffer":0,"byteOffset":19752,"byteLength":264,"target":34963},{"buffer":0,"byteOffset":20016,"byteLength":1152,"target":34962,"byteStride":12},{"buffer":0,"byteOffset":21168,"byteLength":1152,"target":34962,"byteStride":12},{"buffer":0,"byteOffset":22320,"byteLength":768,"target":34962,"byteStride":8},{"buffer":0,"byteOffset":23088,"byteLength":264,"target":34963},{"buffer":0,"byteOffset":23352,"byteLength":1152,"target":34962,"byteStride":12},{"buffer":0,"byteOffset":24504,"byteLength":1152,"target":34962,"byteStride":12},{"buffer":0,"byteOffset":25656,"byteLength":768,"target":34962,"byteStride":8},{"buffer":0,"byteOffset":26424,"byteLength":264,"target":34963},{"buffer":0,"byteOffset":26688,"byteLength":1152,"target":34962,"byteStride":12},{"buffer":0,"byteOffset":27840,"byteLength":1152,"target":34962,"byteStride":12},{"buffer":0,"byteOffset":28992,"byteLength":768,"target":34962,"byteStride":8},{"buffer":0,"byteOffset":29760,"byteLength":264,"target":34963},{"buffer":0,"byteOffset":30024,"byteLength":1848,"target":34962,"byteStride":12},{"buffer":0,"byteOffset":31872,"byteLength":1848,"target":34962,"byteStride":12},{"buffer":0,"byteOffset":33720,"byteLength":1232,"target":34962,"byteStride":8},{"buffer":0,"byteOffset":34952,"byteLength":420,"target":34963},{"buffer":0,"byteOffset":35372,"byteLength":2124,"target":34962,"byteStride":12},{"buffer":0,"byteOffset":37496,"byteLength":2124,"target":34962,"byteStride":12},{"buffer":0,"byteOffset":39620,"byteLength":1416,"target":34962,"byteStride":8},{"buffer":0,"byteOffset":41036,"byteLength":512,"target":34963},{"buffer":0,"byteOffset":41548,"byteLength":2880,"target":34962,"byteStride":12},{"buffer":0,"byteOffset":44428,"byteLength":2880,"target":34962,"byteStride":12},{"buffer":0,"byteOffset":47308,"byteLength":1920,"target":34962,"byteStride":8},{"buffer":0,"byteOffset":49228,"byteLength":672,"target":34963}],"buffers":[{"byteLength":49900,"uri":"data:application/octet-stream;base64,"}],"accessors":[{"bufferView":0,"componentType":5126,"count":96,"max":[0.21875,0.3125,0.21875],"min":[-0.21875,-0.3125,-0.21875],"type":"VEC3"},{"bufferView":1,"componentType":5126,"count":96,"max":[1,1,1],"min":[-1,-1,-1],"type":"VEC3"},{"bufferView":2,"componentType":5126,"count":96,"max":[0.71875,0.71875],"min":[0,0],"type":"VEC2"},{"bufferView":3,"componentType":5123,"count":132,"max":[95],"min":[0],"type":"SCALAR"},{"bufferView":4,"componentType":5126,"count":96,"max":[0.09375,0.34375,0.09375],"min":[-0.09375,-0.03125,-0.09375],"type":"VEC3"},{"bufferView":5,"componentType":5126,"count":96,"max":[1,1,1],"min":[-1,-1,-1],"type":"VEC3"},{"bufferView":6,"componentType":5126,"count":96,"max":[0.59375,0.59375],"min":[0,0],"type":"VEC2"},{"bufferView":7,"componentType":5123,"count":132,"max":[95],"min":[0],"type":"SCALAR"},{"bufferView":8,"componentType":5126,"count":96,"max":[0.09375,0.34375,0.09375],"min":[-0.09375,-0.03125,-0.09375],"type":"VEC3"},{"bufferView":9,"componentType":5126,"count":96,"max":[1,1,1],"min":[-1,-1,-1],"type":"VEC3"},{"bufferView":10,"componentType":5126,"count":96,"max":[0.59375,0.625],"min":[0,0],"type":"VEC2"},{"bufferView":11,"componentType":5123,"count":132,"max":[95],"min":[0],"type":"SCALAR"},{"bufferView":12,"componentType":5126,"count":96,"max":[0.09375,0.34375,0.09375],"min":[-0.09375,-0.03125,-0.09375],"type":"VEC3"},{"bufferView":13,"componentType":5126,"count":96,"max":[1,1,1],"min":[-1,-1,-1],"type":"VEC3"},{"bufferView":14,"componentType":5126,"count":96,"max":[0.59375,0.59375],"min":[0,0],"type":"VEC2"},{"bufferView":15,"componentType":5123,"count":132,"max":[95],"min":[0],"type":"SCALAR"},{"bufferView":16,"componentType":5126,"count":96,"max":[0.09375,0.34375,0.09375],"min":[-0.09375,-0.03125,-0.09375],"type":"VEC3"},{"bufferView":17,"componentType":5126,"count":96,"max":[1,1,1],"min":[-1,-1,-1],"type":"VEC3"},{"bufferView":18,"componentType":5126,"count":96,"max":[0.59375,0.625],"min":[0,0],"type":"VEC2"},{"bufferView":19,"componentType":5123,"count":132,"max":[95],"min":[0],"type":"SCALAR"},{"bufferView":20,"componentType":5126,"count":96,"max":[0.08437500149011612,0.30937498807907104,0.08437500149011612],"min":[-0.08437500149011612,-0.02812499925494194,-0.08437500149011612],"type":"VEC3"},{"bufferView":21,"componentType":5126,"count":96,"max":[1,1,1],"min":[-1,-1,-1],"type":"VEC3"},{"bufferView":22,"componentType":5126,"count":96,"max":[0.53125,0.46875],"min":[0.09375,0],"type":"VEC2"},{"bufferView":23,"componentType":5123,"count":132,"max":[95],"min":[0],"type":"SCALAR"},{"bufferView":24,"componentType":5126,"count":96,"max":[0.08437500149011612,0.04374999925494194,0.08437500149011612],"min":[-0.08437500149011612,-0.29374998807907104,-0.08437500149011612],"type":"VEC3"},{"bufferView":25,"componentType":5126,"count":96,"max":[1,1,1],"min":[-1,-1,-1],"type":"VEC3"},{"bufferView":26,"componentType":5126,"count":96,"max":[0.53125,0.53125],"min":[0,0],"type":"VEC2"},{"bufferView":27,"componentType":5123,"count":132,"max":[95],"min":[0],"type":"SCALAR"},{"bufferView":28,"componentType":5126,"count":96,"max":[0.08437500149011612,0.30937498807907104,0.08437500149011612],"min":[-0.08437500149011612,-0.02812499925494194,-0.08437500149011612],"type":"VEC3"},{"bufferView":29,"componentType":5126,"count":96,"max":[1,1,1],"min":[-1,-1,-1],"type":"VEC3"},{"bufferView":30,"componentType":5126,"count":96,"max":[0.53125,0.46875],"min":[0.09375,0],"type":"VEC2"},{"bufferView":31,"componentType":5123,"count":132,"max":[95],"min":[0],"type":"SCALAR"},{"bufferView":32,"componentType":5126,"count":96,"max":[0.08437500149011612,0.04374999925494194,0.08437500149011612],"min":[-0.08437500149011612,-0.29374998807907104,-0.08437500149011612],"type":"VEC3"},{"bufferView":33,"componentType":5126,"count":96,"max":[1,1,1],"min":[-1,-1,-1],"type":"VEC3"},{"bufferView":34,"componentType":5126,"count":96,"max":[0.53125,0.53125],"min":[0,0],"type":"VEC2"},{"bufferView":35,"componentType":5123,"count":132,"max":[95],"min":[0],"type":"SCALAR"},{"bufferView":36,"componentType":5126,"count":154,"max":[0.32462650537490845,0.3010134994983673,0.3289327621459961],"min":[-0.32462650537490845,-0.33648648858070374,-0.34154212474823],"type":"VEC3"},{"bufferView":37,"componentType":5126,"count":154,"max":[0.9749279022216797,0.9397557973861694,0.986393928527832],"min":[-0.9749279022216797,-0.962889552116394,-0.9009688496589661],"type":"VEC3"},{"bufferView":38,"componentType":5126,"count":154,"max":[0.900362491607666,0.8939775228500366],"min":[0,0],"type":"VEC2"},{"bufferView":39,"componentType":5123,"count":210,"max":[153],"min":[0],"type":"SCALAR"},{"bufferView":40,"componentType":5126,"count":177,"max":[0.8093796968460083,0.7291406393051147,0.5737500190734863],"min":[-1.0006296634674072,-0.1912499964237213,-0.5737500190734863],"type":"VEC3"},{"bufferView":41,"componentType":5126,"count":177,"max":[0.8582204580307007,1,1],"min":[-0.8786087036132812,-0.8660253882408142,-1],"type":"VEC3"},{"bufferView":42,"componentType":5126,"count":177,"max":[0.6598717570304871,0.7591031193733215],"min":[0,0],"type":"VEC2"},{"bufferView":43,"componentType":5123,"count":255,"max":[176],"min":[0],"type":"SCALAR"},{"bufferView":44,"componentType":5126,"count":240,"max":[0.05575349181890488,0.02650037780404091,0.07725027948617935],"min":[-0.0892009437084198,-0.02650037780404091,-0.07725027948617935],"type":"VEC3"},{"bufferView":45,"componentType":5126,"count":240,"max":[1,0.8320503234863281,1],"min":[-0.8660253882408142,-0.8320503234863281,-1],"type":"VEC3"},{"bufferView":46,"componentType":5126,"count":240,"max":[1.53125,1.5173249244689941],"min":[0.002099999925121665,0],"type":"VEC2"},{"bufferView":47,"componentType":5123,"count":336,"max":[239],"min":[0],"type":"SCALAR"}],"materials":[{"pbrMetallicRoughness":{"metallicFactor":0,"roughnessFactor":1,"baseColorTexture":{"index":0}},"alphaMode":"MASK","alphaCutoff":0.05,"doubleSided":true},{"pbrMetallicRoughness":{"metallicFactor":0,"roughnessFactor":1,"baseColorTexture":{"index":1}},"alphaMode":"MASK","alphaCutoff":0.05,"doubleSided":true},{"pbrMetallicRoughness":{"metallicFactor":0,"roughnessFactor":1,"baseColorTexture":{"index":2}},"alphaMode":"MASK","alphaCutoff":0.05,"doubleSided":true},{"pbrMetallicRoughness":{"metallicFactor":0,"roughnessFactor":1,"baseColorTexture":{"index":3}},"alphaMode":"MASK","alphaCutoff":0.05,"doubleSided":true},{"pbrMetallicRoughness":{"metallicFactor":0,"roughnessFactor":1,"baseColorTexture":{"index":4}},"alphaMode":"MASK","alphaCutoff":0.05,"doubleSided":true},{"pbrMetallicRoughness":{"metallicFactor":0,"roughnessFactor":1,"baseColorTexture":{"index":5}},"alphaMode":"MASK","alphaCutoff":0.05,"doubleSided":true},{"pbrMetallicRoughness":{"metallicFactor":0,"roughnessFactor":1,"baseColorTexture":{"index":6}},"alphaMode":"MASK","alphaCutoff":0.05,"doubleSided":true},{"pbrMetallicRoughness":{"metallicFactor":0,"roughnessFactor":1,"baseColorTexture":{"index":7}},"alphaMode":"MASK","alphaCutoff":0.05,"doubleSided":true}],"textures":[{"sampler":0,"source":0,"name":"Torso"},{"sampler":1,"source":1,"name":"LeftLeg"},{"sampler":2,"source":2,"name":"RightLeg"},{"sampler":3,"source":3,"name":"RightArm"},{"sampler":4,"source":4,"name":"LeftArm"},{"sampler":5,"source":5,"name":"Cranium"},{"sampler":6,"source":6,"name":"Hat"},{"sampler":7,"source":7,"name":"MiniMoon"}],"samplers":[{"magFilter":9728,"minFilter":9728,"wrapS":33071,"wrapT":33071},{"magFilter":9728,"minFilter":9728,"wrapS":33071,"wrapT":33071},{"magFilter":9728,"minFilter":9728,"wrapS":33071,"wrapT":33071},{"magFilter":9728,"minFilter":9728,"wrapS":33071,"wrapT":33071},{"magFilter":9728,"minFilter":9728,"wrapS":33071,"wrapT":33071},{"magFilter":9728,"minFilter":9728,"wrapS":33071,"wrapT":33071},{"magFilter":9728,"minFilter":9728,"wrapS":33071,"wrapT":33071},{"magFilter":9728,"minFilter":9728,"wrapS":33071,"wrapT":33071}],"images":[{"mimeType":"image/png","uri":"data:image/png;base64,"},{"mimeType":"image/png","uri":"data:image/png;base64,"},{"mimeType":"image/png","uri":"data:image/png;base64,"},{"mimeType":"image/png","uri":"data:image/png;base64,"},{"mimeType":"image/png","uri":"data:image/png;base64,"},{"mimeType":"image/png","uri":"data:image/png;base64,"},{"mimeType":"image/png","uri":"data:image/png;base64,"},{"mimeType":"image/png","uri":"data:image/png;base64,"}],"meshes":[{"primitives":[{"mode":4,"attributes":{"POSITION":0,"NORMAL":1,"TEXCOORD_0":2},"indices":3,"material":0}]},{"primitives":[{"mode":4,"attributes":{"POSITION":4,"NORMAL":5,"TEXCOORD_0":6},"indices":7,"material":1}]},{"primitives":[{"mode":4,"attributes":{"POSITION":8,"NORMAL":9,"TEXCOORD_0":10},"indices":11,"material":1}]},{"primitives":[{"mode":4,"attributes":{"POSITION":12,"NORMAL":13,"TEXCOORD_0":14},"indices":15,"material":2}]},{"primitives":[{"mode":4,"attributes":{"POSITION":16,"NORMAL":17,"TEXCOORD_0":18},"indices":19,"material":2}]},{"primitives":[{"mode":4,"attributes":{"POSITION":20,"NORMAL":21,"TEXCOORD_0":22},"indices":23,"material":3}]},{"primitives":[{"mode":4,"attributes":{"POSITION":24,"NORMAL":25,"TEXCOORD_0":26},"indices":27,"material":3}]},{"primitives":[{"mode":4,"attributes":{"POSITION":28,"NORMAL":29,"TEXCOORD_0":30},"indices":31,"material":4}]},{"primitives":[{"mode":4,"attributes":{"POSITION":32,"NORMAL":33,"TEXCOORD_0":34},"indices":35,"material":4}]},{"primitives":[{"mode":4,"attributes":{"POSITION":36,"NORMAL":37,"TEXCOORD_0":38},"indices":39,"material":5}]},{"primitives":[{"mode":4,"attributes":{"POSITION":40,"NORMAL":41,"TEXCOORD_0":42},"indices":43,"material":6}]},{"primitives":[{"mode":4,"attributes":{"POSITION":44,"NORMAL":45,"TEXCOORD_0":46},"indices":47,"material":7}]}]}