{"asset":{"version":"2.0","generator":"Blockbench 4.12.2 glTF exporter"},"scenes":[{"nodes":[29],"name":"blockbench_export"}],"scene":0,"nodes":[{"name":"torso","mesh":0},{"translation":[0,-0.3125,0],"name":"cuisse","mesh":1},{"translation":[0,-0.3125,0],"name":"mollet","mesh":2},{"translation":[0,-0.3125,0],"name":"mollet","children":[2]},{"translation":[-0.125,-0.328125,0],"name":"LeftLeg","children":[1,3]},{"translation":[0,-0.3125,0],"name":"cuisse","mesh":3},{"translation":[0,-0.3125,0],"name":"mollet","mesh":4},{"translation":[0,-0.3125,0],"name":"mollet2","children":[6]},{"translation":[0.125,-0.328125,0],"name":"RightLeg","children":[5,7]},{"translation":[0,-0.265625,0],"name":"interior","mesh":5},{"name":"exterior","mesh":6},{"translation":[0,-0.2812500000000002,0],"name":"avant-bras2","children":[10]},{"rotation":[0,0,-0.7071067811865475,0.7071067811865476],"translation":[-0.24062499999999998,0.18125000000000013,-0.009374999999999994],"name":"RightArm","children":[9,11]},{"translation":[0,-0.25,0],"name":"interior","mesh":7},{"name":"exterior","mesh":8},{"rotation":[0,0,0.7071067811865475,0.7071067811865476],"translation":[-0.29687500000000006,0,0],"name":"cylinder","mesh":9},{"translation":[0,-0.1875,0],"name":"staff","children":[15]},{"translation":[0,-0.2656250000000002,0],"name":"avant-bras","children":[14,16]},{"rotation":[0,0,0.7071067811865475,0.7071067811865476],"translation":[0.25625,0.18125000000000013,-0.009374999999999994],"name":"LeftArm","children":[13,17]},{"name":"cranium","mesh":10},{"translation":[0,0.009999999999999787,0],"name":"hat_fabric","mesh":11},{"rotation":[0.7071067811865475,0,0,0.7071067811865476],"translation":[0.0028124999999999956,0.000843750000000032,0],"name":"moon","mesh":12},{"translation":[0.140625,0.578125,0],"name":"moon","children":[21]},{"translation":[0,0.07288851351351355,-0.008567231373833388],"name":"hat","children":[20,22]},{"translation":[0,0.6146114864864864,-0.08518276862616661],"name":"head","children":[19,23]},{"translation":[0,0.984375,0.09375],"name":"Torso","children":[0,4,8,12,18,24]},{"name":"GroundedAngle","children":[25]},{"rotation":[-0.7071067811865475,0,0,0.7071067811865476],"translation":[0.0005962827201150267,0.0014009424102598977,0.006930443548387122],"name":"02Bit","mesh":13},{"translation":[0.6994957031669816,1.5292895817832886,0.09821320564516123],"name":"02Bit","children":[27]},{"children":[26,28]}],"bufferViews":[{"buffer":0,"byteOffset":0,"byteLength":1152,"target":34962,"byteStride":12},{"buffer":0,"byteOffset":1152,"byteLength":1152,"target":34962,"byteStride":12},{"buffer":0,"byteOffset":2304,"byteLength":768,"target":34962,"byteStride":8},{"buffer":0,"byteOffset":3072,"byteLength":264,"target":34963},{"buffer":0,"byteOffset":3336,"byteLength":1152,"target":34962,"byteStride":12},{"buffer":0,"byteOffset":4488,"byteLength":1152,"target":34962,"byteStride":12},{"buffer":0,"byteOffset":5640,"byteLength":768,"target":34962,"byteStride":8},{"buffer":0,"byteOffset":6408,"byteLength":264,"target":34963},{"buffer":0,"byteOffset":6672,"byteLength":1152,"target":34962,"byteStride":12},{"buffer":0,"byteOffset":7824,"byteLength":1152,"target":34962,"byteStride":12},{"buffer":0,"byteOffset":8976,"byteLength":768,"target":34962,"byteStride":8},{"buffer":0,"byteOffset":9744,"byteLength":264,"target":34963},{"buffer":0,"byteOffset":10008,"byteLength":1152,"target":34962,"byteStride":12},{"buffer":0,"byteOffset":11160,"byteLength":1152,"target":34962,"byteStride":12},{"buffer":0,"byteOffset":12312,"byteLength":768,"target":34962,"byteStride":8},{"buffer":0,"byteOffset":13080,"byteLength":264,"target":34963},{"buffer":0,"byteOffset":13344,"byteLength":1152,"target":34962,"byteStride":12},{"buffer":0,"byteOffset":14496,"byteLength":1152,"target":34962,"byteStride":12},{"buffer":0,"byteOffset":15648,"byteLength":768,"target":34962,"byteStride":8},{"buffer":0,"byteOffset":16416,"byteLength":264,"target":34963},{"buffer":0,"byteOffset":16680,"byteLength":1152,"target":34962,"byteStride":12},{"buffer":0,"byteOffset":17832,"byteLength":1152,"target":34962,"byteStride":12},{"buffer":0,"byteOffset":18984,"byteLength":768,"target":34962,"byteStride":8},{"buffer":0,"byteOffset":19752,"byteLength":264,"target":34963},{"buffer":0,"byteOffset":20016,"byteLength":1152,"target":34962,"byteStride":12},{"buffer":0,"byteOffset":21168,"byteLength":1152,"target":34962,"byteStride":12},{"buffer":0,"byteOffset":22320,"byteLength":768,"target":34962,"byteStride":8},{"buffer":0,"byteOffset":23088,"byteLength":264,"target":34963},{"buffer":0,"byteOffset":23352,"byteLength":1152,"target":34962,"byteStride":12},{"buffer":0,"byteOffset":24504,"byteLength":1152,"target":34962,"byteStride":12},{"buffer":0,"byteOffset":25656,"byteLength":768,"target":34962,"byteStride":8},{"buffer":0,"byteOffset":26424,"byteLength":264,"target":34963},{"buffer":0,"byteOffset":26688,"byteLength":1152,"target":34962,"byteStride":12},{"buffer":0,"byteOffset":27840,"byteLength":1152,"target":34962,"byteStride":12},{"buffer":0,"byteOffset":28992,"byteLength":768,"target":34962,"byteStride":8},{"buffer":0,"byteOffset":29760,"byteLength":264,"target":34963},{"buffer":0,"byteOffset":30024,"byteLength":10656,"target":34962,"byteStride":12},{"buffer":0,"byteOffset":40680,"byteLength":10656,"target":34962,"byteStride":12},{"buffer":0,"byteOffset":51336,"byteLength":7104,"target":34962,"byteStride":8},{"buffer":0,"byteOffset":58440,"byteLength":2592,"target":34963},{"buffer":0,"byteOffset":61032,"byteLength":1848,"target":34962,"byteStride":12},{"buffer":0,"byteOffset":62880,"byteLength":1848,"target":34962,"byteStride":12},{"buffer":0,"byteOffset":64728,"byteLength":1232,"target":34962,"byteStride":8},{"buffer":0,"byteOffset":65960,"byteLength":420,"target":34963},{"buffer":0,"byteOffset":66380,"byteLength":2124,"target":34962,"byteStride":12},{"buffer":0,"byteOffset":68504,"byteLength":2124,"target":34962,"byteStride":12},{"buffer":0,"byteOffset":70628,"byteLength":1416,"target":34962,"byteStride":8},{"buffer":0,"byteOffset":72044,"byteLength":512,"target":34963},{"buffer":0,"byteOffset":72556,"byteLength":2880,"target":34962,"byteStride":12},{"buffer":0,"byteOffset":75436,"byteLength":2880,"target":34962,"byteStride":12},{"buffer":0,"byteOffset":78316,"byteLength":1920,"target":34962,"byteStride":8},{"buffer":0,"byteOffset":80236,"byteLength":672,"target":34963},{"buffer":0,"byteOffset":80908,"byteLength":3168,"target":34962,"byteStride":12},{"buffer":0,"byteOffset":84076,"byteLength":3168,"target":34962,"byteStride":12},{"buffer":0,"byteOffset":87244,"byteLength":2112,"target":34962,"byteStride":8},{"buffer":0,"byteOffset":89356,"byteLength":720,"target":34963},{"buffer":0,"byteOffset":90076,"byteLength":4},{"buffer":0,"byteOffset":90080,"byteLength":16},{"buffer":0,"byteOffset":90096,"byteLength":4},{"buffer":0,"byteOffset":90100,"byteLength":16},{"buffer":0,"byteOffset":90116,"byteLength":4},{"buffer":0,"byteOffset":90120,"byteLength":16},{"buffer":0,"byteOffset":90136,"byteLength":4},{"buffer":0,"byteOffset":90140,"byteLength":16},{"buffer":0,"byteOffset":90156,"byteLength":4},{"buffer":0,"byteOffset":90160,"byteLength":16},{"buffer":0,"byteOffset":90176,"byteLength":4},{"buffer":0,"byteOffset":90180,"byteLength":16},{"buffer":0,"byteOffset":90196,"byteLength":4},{"buffer":0,"byteOffset":90200,"byteLength":16},{"buffer":0,"byteOffset":90216,"byteLength":4},{"buffer":0,"byteOffset":90220,"byteLength":16},{"buffer":0,"byteOffset":90236,"byteLength":4},{"buffer":0,"byteOffset":90240,"byteLength":16},{"buffer":0,"byteOffset":90256,"byteLength":4},{"buffer":0,"byteOffset":90260,"byteLength":16},{"buffer":0,"byteOffset":90276,"byteLength":432},{"buffer":0,"byteOffset":90708,"byteLength":1728},{"buffer":0,"byteOffset":92436,"byteLength":432},{"buffer":0,"byteOffset":92868,"byteLength":1296},{"buffer":0,"byteOffset":94164,"byteLength":20},{"buffer":0,"byteOffset":94184,"byteLength":80},{"buffer":0,"byteOffset":94264,"byteLength":432},{"buffer":0,"byteOffset":94696,"byteLength":1296}],"buffers":[{"byteLength":95992,"uri":"data:application/octet-stream;base64,"}],"accessors":[{"bufferView":0,"componentType":5126,"count":96,"max":[0.21875,0.3125,0.21875],"min":[-0.21875,-0.3125,-0.21875],"type":"VEC3"},{"bufferView":1,"componentType":5126,"count":96,"max":[1,1,1],"min":[-1,-1,-1],"type":"VEC3"},{"bufferView":2,"componentType":5126,"count":96,"max":[0.71875,0.71875],"min":[0,0],"type":"VEC2"},{"bufferView":3,"componentType":5123,"count":132,"max":[95],"min":[0],"type":"SCALAR"},{"bufferView":4,"componentType":5126,"count":96,"max":[0.09375,0.34375,0.09375],"min":[-0.09375,-0.03125,-0.09375],"type":"VEC3"},{"bufferView":5,"componentType":5126,"count":96,"max":[1,1,1],"min":[-1,-1,-1],"type":"VEC3"},{"bufferView":6,"componentType":5126,"count":96,"max":[0.59375,0.59375],"min":[0,0],"type":"VEC2"},{"bufferView":7,"componentType":5123,"count":132,"max":[95],"min":[0],"type":"SCALAR"},{"bufferView":8,"componentType":5126,"count":96,"max":[0.09375,0.34375,0.09375],"min":[-0.09375,-0.03125,-0.09375],"type":"VEC3"},{"bufferView":9,"componentType":5126,"count":96,"max":[1,1,1],"min":[-1,-1,-1],"type":"VEC3"},{"bufferView":10,"componentType":5126,"count":96,"max":[0.59375,0.625],"min":[0,0],"type":"VEC2"},{"bufferView":11,"componentType":5123,"count":132,"max":[95],"min":[0],"type":"SCALAR"},{"bufferView":12,"componentType":5126,"count":96,"max":[0.09375,0.34375,0.09375],"min":[-0.09375,-0.03125,-0.09375],"type":"VEC3"},{"bufferView":13,"componentType":5126,"count":96,"max":[1,1,1],"min":[-1,-1,-1],"type":"VEC3"},{"bufferView":14,"componentType":5126,"count":96,"max":[0.59375,0.59375],"min":[0,0],"type":"VEC2"},{"bufferView":15,"componentType":5123,"count":132,"max":[95],"min":[0],"type":"SCALAR"},{"bufferView":16,"componentType":5126,"count":96,"max":[0.09375,0.34375,0.09375],"min":[-0.09375,-0.03125,-0.09375],"type":"VEC3"},{"bufferView":17,"componentType":5126,"count":96,"max":[1,1,1],"min":[-1,-1,-1],"type":"VEC3"},{"bufferView":18,"componentType":5126,"count":96,"max":[0.59375,0.625],"min":[0,0],"type":"VEC2"},{"bufferView":19,"componentType":5123,"count":132,"max":[95],"min":[0],"type":"SCALAR"},{"bufferView":20,"componentType":5126,"count":96,"max":[0.08437500149011612,0.30937498807907104,0.08437500149011612],"min":[-0.08437500149011612,-0.02812499925494194,-0.08437500149011612],"type":"VEC3"},{"bufferView":21,"componentType":5126,"count":96,"max":[1,1,1],"min":[-1,-1,-1],"type":"VEC3"},{"bufferView":22,"componentType":5126,"count":96,"max":[0.53125,0.46875],"min":[0.09375,0],"type":"VEC2"},{"bufferView":23,"componentType":5123,"count":132,"max":[95],"min":[0],"type":"SCALAR"},{"bufferView":24,"componentType":5126,"count":96,"max":[0.08437500149011612,0.04374999925494194,0.08437500149011612],"min":[-0.08437500149011612,-0.29374998807907104,-0.08437500149011612],"type":"VEC3"},{"bufferView":25,"componentType":5126,"count":96,"max":[1,1,1],"min":[-1,-1,-1],"type":"VEC3"},{"bufferView":26,"componentType":5126,"count":96,"max":[0.53125,0.53125],"min":[0,0],"type":"VEC2"},{"bufferView":27,"componentType":5123,"count":132,"max":[95],"min":[0],"type":"SCALAR"},{"bufferView":28,"componentType":5126,"count":96,"max":[0.08437500149011612,0.30937498807907104,0.08437500149011612],"min":[-0.08437500149011612,-0.02812499925494194,-0.08437500149011612],"type":"VEC3"},{"bufferView":29,"componentType":5126,"count":96,"max":[1,1,1],"min":[-1,-1,-1],"type":"VEC3"},{"bufferView":30,"componentType":5126,"count":96,"max":[0.53125,0.46875],"min":[0.09375,0],"type":"VEC2"},{"bufferView":31,"componentType":5123,"count":132,"max":[95],"min":[0],"type":"SCALAR"},{"bufferView":32,"componentType":5126,"count":96,"max":[0.08437500149011612,0.04374999925494194,0.08437500149011612],"min":[-0.08437500149011612,-0.29374998807907104,-0.08437500149011612],"type":"VEC3"},{"bufferView":33,"componentType":5126,"count":96,"max":[1,1,1],"min":[-1,-1,-1],"type":"VEC3"},{"bufferView":34,"componentType":5126,"count":96,"max":[0.53125,0.53125],"min":[0,0],"type":"VEC2"},{"bufferView":35,"componentType":5123,"count":132,"max":[95],"min":[0],"type":"SCALAR"},{"bufferView":36,"componentType":5126,"count":888,"max":[0.140625,0.625,0.109375],"min":[-0.140625,-0.625,-0.08343353122472763],"type":"VEC3"},{"bufferView":37,"componentType":5126,"count":888,"max":[1,1,1],"min":[-1,-0.9593685269355774,-1],"type":"VEC3"},{"bufferView":38,"componentType":5126,"count":888,"max":[0.59375,0.9354281425476074],"min":[0.004054310265928507,0],"type":"VEC2"},{"bufferView":39,"componentType":5123,"count":1296,"max":[887],"min":[0],"type":"SCALAR"},{"bufferView":40,"componentType":5126,"count":154,"max":[0.32462650537490845,0.3010134994983673,0.3289327621459961],"min":[-0.32462650537490845,-0.33648648858070374,-0.34154212474823],"type":"VEC3"},{"bufferView":41,"componentType":5126,"count":154,"max":[0.9749279022216797,0.9397557973861694,0.986393928527832],"min":[-0.9749279022216797,-0.962889552116394,-0.9009688496589661],"type":"VEC3"},{"bufferView":42,"componentType":5126,"count":154,"max":[0.900362491607666,0.8939775228500366],"min":[0,0],"type":"VEC2"},{"bufferView":43,"componentType":5123,"count":210,"max":[153],"min":[0],"type":"SCALAR"},{"bufferView":44,"componentType":5126,"count":177,"max":[0.8093796968460083,0.7291406393051147,0.5259374976158142],"min":[-1.0006296634674072,-0.1912499964237213,-0.5737500190734863],"type":"VEC3"},{"bufferView":45,"componentType":5126,"count":177,"max":[0.8582204580307007,1,1],"min":[-0.8685277700424194,-0.8660253882408142,-1],"type":"VEC3"},{"bufferView":46,"componentType":5126,"count":177,"max":[0.6598717570304871,0.7591031193733215],"min":[0,0],"type":"VEC2"},{"bufferView":47,"componentType":5123,"count":255,"max":[176],"min":[0],"type":"SCALAR"},{"bufferView":48,"componentType":5126,"count":240,"max":[0.05575349181890488,0.02650037780404091,0.07725027948617935],"min":[-0.0892009437084198,-0.02650037780404091,-0.07725027948617935],"type":"VEC3"},{"bufferView":49,"componentType":5126,"count":240,"max":[1,0.8320503234863281,1],"min":[-0.8660253882408142,-0.8320503234863281,-1],"type":"VEC3"},{"bufferView":50,"componentType":5126,"count":240,"max":[1.53125,1.5173249244689941],"min":[0.002099999925121665,0],"type":"VEC2"},{"bufferView":51,"componentType":5123,"count":336,"max":[239],"min":[0],"type":"SCALAR"},{"bufferView":52,"componentType":5126,"count":264,"max":[0.07849033176898956,0.20009072124958038,0.08054804056882858],"min":[-0.08518442511558533,-0.0736592710018158,-0.08803427219390869],"type":"VEC3"},{"bufferView":53,"componentType":5126,"count":264,"max":[0.9735197424888611,0.8899334073066711,0.9735197424888611],"min":[-0.9824942946434021,-0.9259310364723206,-0.980107307434082],"type":"VEC3"},{"bufferView":54,"componentType":5126,"count":264,"max":[0.9375,0.9199251532554626],"min":[0,0],"type":"VEC2"},{"bufferView":55,"componentType":5123,"count":360,"max":[263],"min":[0],"type":"SCALAR"},{"bufferView":56,"componentType":5126,"count":1,"max":[0],"min":[0],"type":"SCALAR"},{"bufferView":57,"componentType":5126,"count":1,"max":[0,0,0,1],"min":[0,0,0,1],"type":"VEC4"},{"bufferView":58,"componentType":5126,"count":1,"max":[0],"min":[0],"type":"SCALAR"},{"bufferView":59,"componentType":5126,"count":1,"max":[-0.04357787221670151,-0.0019026509253308177,-0.04357787221670151,0.9980973601341248],"min":[-0.04357787221670151,-0.0019026509253308177,-0.04357787221670151,0.9980973601341248],"type":"VEC4"},{"bufferView":60,"componentType":5126,"count":1,"max":[0],"min":[0],"type":"SCALAR"},{"bufferView":61,"componentType":5126,"count":1,"max":[0.08715574443340302,0,0,0.9961947202682495],"min":[0.08715574443340302,0,0,0.9961947202682495],"type":"VEC4"},{"bufferView":62,"componentType":5126,"count":1,"max":[0],"min":[0],"type":"SCALAR"},{"bufferView":63,"componentType":5126,"count":1,"max":[-0.04357787221670151,0.0019026509253308177,0.04357787221670151,0.9980973601341248],"min":[-0.04357787221670151,0.0019026509253308177,0.04357787221670151,0.9980973601341248],"type":"VEC4"},{"bufferView":64,"componentType":5126,"count":1,"max":[0],"min":[0],"type":"SCALAR"},{"bufferView":65,"componentType":5126,"count":1,"max":[0.08715574443340302,0,0,0.9961947202682495],"min":[0.08715574443340302,0,0,0.9961947202682495],"type":"VEC4"},{"bufferView":66,"componentType":5126,"count":1,"max":[0],"min":[0],"type":"SCALAR"},{"bufferView":67,"componentType":5126,"count":1,"max":[0,0,-0.15212339162826538,0.9883615374565125],"min":[0,0,-0.15212339162826538,0.9883615374565125],"type":"VEC4"},{"bufferView":68,"componentType":5126,"count":1,"max":[0],"min":[0],"type":"SCALAR"},{"bufferView":69,"componentType":5126,"count":1,"max":[0,0,0.10886687785387039,0.9940563440322876],"min":[0,0,0.10886687785387039,0.9940563440322876],"type":"VEC4"},{"bufferView":70,"componentType":5126,"count":1,"max":[0],"min":[0],"type":"SCALAR"},{"bufferView":71,"componentType":5126,"count":1,"max":[-0.17852692306041718,-0.4428673982620239,0.32343462109565735,0.8169373869895935],"min":[-0.17852692306041718,-0.4428673982620239,0.32343462109565735,0.8169373869895935],"type":"VEC4"},{"bufferView":72,"componentType":5126,"count":1,"max":[0],"min":[0],"type":"SCALAR"},{"bufferView":73,"componentType":5126,"count":1,"max":[-0.21773630380630493,-0.14467467367649078,0.3785002529621124,0.8879176378250122],"min":[-0.21773630380630493,-0.14467467367649078,0.3785002529621124,0.8879176378250122],"type":"VEC4"},{"bufferView":74,"componentType":5126,"count":1,"max":[0],"min":[0],"type":"SCALAR"},{"bufferView":75,"componentType":5126,"count":1,"max":[0.08715574443340302,0,0,0.9961947202682495],"min":[0.08715574443340302,0,0,0.9961947202682495],"type":"VEC4"},{"bufferView":76,"componentType":5126,"count":108,"max":[6],"min":[0],"type":"SCALAR"},{"bufferView":77,"componentType":5126,"count":108,"max":[0.0022517095785588026,0.0016875802539288998,1,1],"min":[-0.0015584201319143176,-0.002252420876175165,-0.9998957514762878,-1],"type":"VEC4"},{"bufferView":78,"componentType":5126,"count":108,"max":[6],"min":[0],"type":"SCALAR"},{"bufferView":79,"componentType":5126,"count":108,"max":[0.34012070298194885,1.451200008392334,0.47321319580078125],"min":[0.34012070298194885,1.3261646032333374,0.47321319580078125],"type":"VEC3"},{"bufferView":80,"componentType":5126,"count":5,"max":[6],"min":[0],"type":"SCALAR"},{"bufferView":81,"componentType":5126,"count":5,"max":[0,0,0,1],"min":[0,-1,0,-1],"type":"VEC4"},{"bufferView":82,"componentType":5126,"count":108,"max":[6],"min":[0],"type":"SCALAR"},{"bufferView":83,"componentType":5126,"count":108,"max":[0.140625,0.59375,0],"min":[0.140625,0.5625,0],"type":"VEC3"}],"materials":[{"pbrMetallicRoughness":{"metallicFactor":0,"roughnessFactor":1,"baseColorTexture":{"index":0}},"alphaMode":"MASK","alphaCutoff":0.05,"doubleSided":true},{"pbrMetallicRoughness":{"metallicFactor":0,"roughnessFactor":1,"baseColorTexture":{"index":1}},"alphaMode":"MASK","alphaCutoff":0.05,"doubleSided":true},{"pbrMetallicRoughness":{"metallicFactor":0,"roughnessFactor":1,"baseColorTexture":{"index":2}},"alphaMode":"MASK","alphaCutoff":0.05,"doubleSided":true},{"pbrMetallicRoughness":{"metallicFactor":0,"roughnessFactor":1,"baseColorTexture":{"index":3}},"alphaMode":"MASK","alphaCutoff":0.05,"doubleSided":true},{"pbrMetallicRoughness":{"metallicFactor":0,"roughnessFactor":1,"baseColorTexture":{"index":4}},"alphaMode":"MASK","alphaCutoff":0.05,"doubleSided":true},{"pbrMetallicRoughness":{"metallicFactor":0,"roughnessFactor":1,"baseColorTexture":{"index":5}},"alphaMode":"MASK","alphaCutoff":0.05,"doubleSided":true},{"pbrMetallicRoughness":{"metallicFactor":0,"roughnessFactor":1,"baseColorTexture":{"index":6}},"alphaMode":"MASK","alphaCutoff":0.05,"doubleSided":true},{"pbrMetallicRoughness":{"metallicFactor":0,"roughnessFactor":1,"baseColorTexture":{"index":7}},"alphaMode":"MASK","alphaCutoff":0.05,"doubleSided":true},{"pbrMetallicRoughness":{"metallicFactor":0,"roughnessFactor":1,"baseColorTexture":{"index":8}},"alphaMode":"MASK","alphaCutoff":0.05,"doubleSided":true},{"pbrMetallicRoughness":{"metallicFactor":0,"roughnessFactor":1,"baseColorTexture":{"index":9}},"alphaMode":"MASK","alphaCutoff":0.05,"doubleSided":true}],"textures":[{"sampler":0,"source":0,"name":"Torso.png"},{"sampler":1,"source":1,"name":"LeftLeg.png"},{"sampler":2,"source":2,"name":"RightLeg.png"},{"sampler":3,"source":3,"name":"RightArm.png"},{"sampler":4,"source":4,"name":"LeftArm.png"},{"sampler":5,"source":5,"name":"Staff"},{"sampler":6,"source":6,"name":"Cranium.png"},{"sampler":7,"source":7,"name":"Hat.png"},{"sampler":8,"source":8,"name":"MiniMoon.png"},{"sampler":9,"source":9,"name":"02bit"}],"samplers":[{"magFilter":9728,"minFilter":9728,"wrapS":33071,"wrapT":33071},{"magFilter":9728,"minFilter":9728,"wrapS":33071,"wrapT":33071},{"magFilter":9728,"minFilter":9728,"wrapS":33071,"wrapT":33071},{"magFilter":9728,"minFilter":9728,"wrapS":33071,"wrapT":33071},{"magFilter":9728,"minFilter":9728,"wrapS":33071,"wrapT":33071},{"magFilter":9728,"minFilter":9728,"wrapS":33071,"wrapT":33071},{"magFilter":9728,"minFilter":9728,"wrapS":33071,"wrapT":33071},{"magFilter":9728,"minFilter":9728,"wrapS":33071,"wrapT":33071},{"magFilter":9728,"minFilter":9728,"wrapS":33071,"wrapT":33071},{"magFilter":9728,"minFilter":9728,"wrapS":33071,"wrapT":33071}],"images":[{"mimeType":"image/png","uri":"data:image/png;base64,"},{"mimeType":"image/png","uri":"data:image/png;base64,"},{"mimeType":"image/png","uri":"data:image/png;base64,"},{"mimeType":"image/png","uri":"data:image/png;base64,"},{"mimeType":"image/png","uri":"data:image/png;base64,"},{"mimeType":"image/png","uri":"data:image/png;base64,"},{"mimeType":"image/png","uri":"data:image/png;base64,"},{"mimeType":"image/png","uri":"data:image/png;base64,"},{"mimeType":"image/png","uri":"data:image/png;base64,"},{"mimeType":"image/png","uri":"data:image/png;base64,"}],"meshes":[{"primitives":[{"mode":4,"attributes":{"POSITION":0,"NORMAL":1,"TEXCOORD_0":2},"indices":3,"material":0}]},{"primitives":[{"mode":4,"attributes":{"POSITION":4,"NORMAL":5,"TEXCOORD_0":6},"indices":7,"material":1}]},{"primitives":[{"mode":4,"attributes":{"POSITION":8,"NORMAL":9,"TEXCOORD_0":10},"indices":11,"material":1}]},{"primitives":[{"mode":4,"attributes":{"POSITION":12,"NORMAL":13,"TEXCOORD_0":14},"indices":15,"material":2}]},{"primitives":[{"mode":4,"attributes":{"POSITION":16,"NORMAL":17,"TEXCOORD_0":18},"indices":19,"material":2}]},{"primitives":[{"mode":4,"attributes":{"POSITION":20,"NORMAL":21,"TEXCOORD_0":22},"indices":23,"material":3}]},{"primitives":[{"mode":4,"attributes":{"POSITION":24,"NORMAL":25,"TEXCOORD_0":26},"indices":27,"material":3}]},{"primitives":[{"mode":4,"attributes":{"POSITION":28,"NORMAL":29,"TEXCOORD_0":30},"indices":31,"material":4}]},{"primitives":[{"mode":4,"attributes":{"POSITION":32,"NORMAL":33,"TEXCOORD_0":34},"indices":35,"material":4}]},{"primitives":[{"mode":4,"attributes":{"POSITION":36,"NORMAL":37,"TEXCOORD_0":38},"indices":39,"material":5}]},{"primitives":[{"mode":4,"attributes":{"POSITION":40,"NORMAL":41,"TEXCOORD_0":42},"indices":43,"material":6}]},{"primitives":[{"mode":4,"attributes":{"POSITION":44,"NORMAL":45,"TEXCOORD_0":46},"indices":47,"material":7}]},{"primitives":[{"mode":4,"attributes":{"POSITION":48,"NORMAL":49,"TEXCOORD_0":50},"indices":51,"material":8}]},{"primitives":[{"mode":4,"attributes":{"POSITION":52,"NORMAL":53,"TEXCOORD_0":54},"indices":55,"material":9}]}],"animations":[{"name":"Idle","samplers":[{"input":56,"output":57,"interpolation":"LINEAR"},{"input":58,"output":59,"interpolation":"LINEAR"},{"input":60,"output":61,"interpolation":"LINEAR"},{"input":62,"output":63,"interpolation":"LINEAR"},{"input":64,"output":65,"interpolation":"LINEAR"},{"input":66,"output":67,"interpolation":"LINEAR"},{"input":68,"output":69,"interpolation":"LINEAR"},{"input":70,"output":71,"interpolation":"LINEAR"},{"input":72,"output":73,"interpolation":"LINEAR"},{"input":74,"output":75,"interpolation":"LINEAR"},{"input":76,"output":77,"interpolation":"LINEAR"},{"input":78,"output":79,"interpolation":"LINEAR"},{"input":80,"output":81,"interpolation":"LINEAR"},{"input":82,"output":83,"interpolation":"LINEAR"}],"channels":[{"sampler":0,"target":{"node":26,"path":"rotation"}},{"sampler":1,"target":{"node":4,"path":"rotation"}},{"sampler":2,"target":{"node":3,"path":"rotation"}},{"sampler":3,"target":{"node":8,"path":"rotation"}},{"sampler":4,"target":{"node":7,"path":"rotation"}},{"sampler":5,"target":{"node":12,"path":"rotation"}},{"sampler":6,"target":{"node":11,"path":"rotation"}},{"sampler":7,"target":{"node":18,"path":"rotation"}},{"sampler":8,"target":{"node":17,"path":"rotation"}},{"sampler":9,"target":{"node":24,"path":"rotation"}},{"sampler":10,"target":{"node":28,"path":"rotation"}},{"sampler":11,"target":{"node":28,"path":"translation"}},{"sampler":12,"target":{"node":22,"path":"rotation"}},{"sampler":13,"target":{"node":22,"path":"translation"}}]}]}