{"asset":{"version":"2.0","generator":"Blockbench 4.11.2 glTF exporter"},"scenes":[{"nodes":[21],"name":"blockbench_export"}],"scene":0,"nodes":[{"name":"cranium","mesh":0},{"translation":[0,1.375,0],"name":"head","children":[0]},{"translation":[0,0.578125,0.09375],"name":"torso","mesh":1},{"name":"torso","children":[2]},{"name":"headpiece","mesh":2},{"rotation":[-0.5913096483635824,0,0,0.8064446042674827],"translation":[0,-0.63125,-0.375],"name":"cape","mesh":3},{"translation":[0,1.5625,0],"name":"cloak","children":[4,5]},{"translation":[0,-0.3125,0],"name":"mollet","mesh":4},{"name":"cuisse","mesh":5},{"translation":[-0.125,0.34375,0.09375],"name":"left","children":[7,8]},{"translation":[0,-0.3125,0],"name":"mollet","mesh":6},{"name":"cuisse","mesh":7},{"translation":[0.125,0.34375,0.09375],"name":"right","children":[10,11]},{"name":"legs","children":[9,12]},{"name":"interior","mesh":8},{"translation":[0,-0.2812500000000001,0],"name":"exterior","mesh":9},{"rotation":[0,0,-0.7071067811865475,0.7071067811865476],"translation":[-1.2375,0.5343750000000002,0.084375],"name":"left2","children":[14,15]},{"translation":[0,-0.2812500000000001,0],"name":"exterior","mesh":10},{"name":"interior","mesh":11},{"rotation":[0,0,0.7071067811865475,0.7071067811865476],"translation":[-0.2250000000000001,0.5343750000000002,0.084375],"name":"right2","children":[17,18]},{"translation":[0.7312500000000001,0.63125,0],"name":"arms","children":[16,19]},{"children":[1,3,6,13,20]}],"bufferViews":[{"buffer":0,"byteOffset":0,"byteLength":1848,"target":34962,"byteStride":12},{"buffer":0,"byteOffset":1848,"byteLength":1848,"target":34962,"byteStride":12},{"buffer":0,"byteOffset":3696,"byteLength":1232,"target":34962,"byteStride":8},{"buffer":0,"byteOffset":4928,"byteLength":420,"target":34963},{"buffer":0,"byteOffset":5348,"byteLength":1152,"target":34962,"byteStride":12},{"buffer":0,"byteOffset":6500,"byteLength":1152,"target":34962,"byteStride":12},{"buffer":0,"byteOffset":7652,"byteLength":768,"target":34962,"byteStride":8},{"buffer":0,"byteOffset":8420,"byteLength":264,"target":34963},{"buffer":0,"byteOffset":8684,"byteLength":1548,"target":34962,"byteStride":12},{"buffer":0,"byteOffset":10232,"byteLength":1548,"target":34962,"byteStride":12},{"buffer":0,"byteOffset":11780,"byteLength":1032,"target":34962,"byteStride":8},{"buffer":0,"byteOffset":12812,"byteLength":332,"target":34963},{"buffer":0,"byteOffset":13144,"byteLength":576,"target":34962,"byteStride":12},{"buffer":0,"byteOffset":13720,"byteLength":576,"target":34962,"byteStride":12},{"buffer":0,"byteOffset":14296,"byteLength":384,"target":34962,"byteStride":8},{"buffer":0,"byteOffset":14680,"byteLength":144,"target":34963},{"buffer":0,"byteOffset":14824,"byteLength":1152,"target":34962,"byteStride":12},{"buffer":0,"byteOffset":15976,"byteLength":1152,"target":34962,"byteStride":12},{"buffer":0,"byteOffset":17128,"byteLength":768,"target":34962,"byteStride":8},{"buffer":0,"byteOffset":17896,"byteLength":264,"target":34963},{"buffer":0,"byteOffset":18160,"byteLength":1152,"target":34962,"byteStride":12},{"buffer":0,"byteOffset":19312,"byteLength":1152,"target":34962,"byteStride":12},{"buffer":0,"byteOffset":20464,"byteLength":768,"target":34962,"byteStride":8},{"buffer":0,"byteOffset":21232,"byteLength":264,"target":34963},{"buffer":0,"byteOffset":21496,"byteLength":1152,"target":34962,"byteStride":12},{"buffer":0,"byteOffset":22648,"byteLength":1152,"target":34962,"byteStride":12},{"buffer":0,"byteOffset":23800,"byteLength":768,"target":34962,"byteStride":8},{"buffer":0,"byteOffset":24568,"byteLength":264,"target":34963},{"buffer":0,"byteOffset":24832,"byteLength":1152,"target":34962,"byteStride":12},{"buffer":0,"byteOffset":25984,"byteLength":1152,"target":34962,"byteStride":12},{"buffer":0,"byteOffset":27136,"byteLength":768,"target":34962,"byteStride":8},{"buffer":0,"byteOffset":27904,"byteLength":264,"target":34963},{"buffer":0,"byteOffset":28168,"byteLength":1152,"target":34962,"byteStride":12},{"buffer":0,"byteOffset":29320,"byteLength":1152,"target":34962,"byteStride":12},{"buffer":0,"byteOffset":30472,"byteLength":768,"target":34962,"byteStride":8},{"buffer":0,"byteOffset":31240,"byteLength":264,"target":34963},{"buffer":0,"byteOffset":31504,"byteLength":1152,"target":34962,"byteStride":12},{"buffer":0,"byteOffset":32656,"byteLength":1152,"target":34962,"byteStride":12},{"buffer":0,"byteOffset":33808,"byteLength":768,"target":34962,"byteStride":8},{"buffer":0,"byteOffset":34576,"byteLength":264,"target":34963},{"buffer":0,"byteOffset":34840,"byteLength":1152,"target":34962,"byteStride":12},{"buffer":0,"byteOffset":35992,"byteLength":1152,"target":34962,"byteStride":12},{"buffer":0,"byteOffset":37144,"byteLength":768,"target":34962,"byteStride":8},{"buffer":0,"byteOffset":37912,"byteLength":264,"target":34963},{"buffer":0,"byteOffset":38176,"byteLength":1152,"target":34962,"byteStride":12},{"buffer":0,"byteOffset":39328,"byteLength":1152,"target":34962,"byteStride":12},{"buffer":0,"byteOffset":40480,"byteLength":768,"target":34962,"byteStride":8},{"buffer":0,"byteOffset":41248,"byteLength":264,"target":34963}],"buffers":[{"byteLength":41512,"uri":"data:application/octet-stream;base64,"}],"accessors":[{"bufferView":0,"componentType":5126,"count":154,"max":[0.32462650537490845,0.5249999761581421,0.3375000059604645],"min":[-0.32462650537490845,-0.11249999701976776,-0.3329748809337616],"type":"VEC3"},{"bufferView":1,"componentType":5126,"count":154,"max":[0.9749279022216797,0.9397557973861694,0.986393928527832],"min":[-0.9749279022216797,-0.962889552116394,-0.9009688496589661],"type":"VEC3"},{"bufferView":2,"componentType":5126,"count":154,"max":[0.900362491607666,0.8939775228500366],"min":[0,0],"type":"VEC2"},{"bufferView":3,"componentType":5123,"count":210,"max":[153],"min":[0],"type":"SCALAR"},{"bufferView":4,"componentType":5126,"count":96,"max":[0.21875,0.71875,0.21875],"min":[-0.21875,0.09375,-0.21875],"type":"VEC3"},{"bufferView":5,"componentType":5126,"count":96,"max":[1,1,1],"min":[-1,-1,-1],"type":"VEC3"},{"bufferView":6,"componentType":5126,"count":96,"max":[0.71875,0.71875],"min":[0,0],"type":"VEC2"},{"bufferView":7,"componentType":5123,"count":132,"max":[95],"min":[0],"type":"SCALAR"},{"bufferView":8,"componentType":5126,"count":129,"max":[0.3449254333972931,0.35624998807907104,0.35624998807907104],"min":[-0.3449254333972931,-0.4124999940395355,-0.354278028011322],"type":"VEC3"},{"bufferView":9,"componentType":5126,"count":129,"max":[0.9832280278205872,0.9630823135375977,0.9482319355010986],"min":[-0.9876472353935242,-0.2553827166557312,-0.9482319355010986],"type":"VEC3"},{"bufferView":10,"componentType":5126,"count":129,"max":[0.859375,0.96875],"min":[0.0076886508613824844,0],"type":"VEC2"},{"bufferView":11,"componentType":5123,"count":165,"max":[128],"min":[0],"type":"SCALAR"},{"bufferView":12,"componentType":5126,"count":48,"max":[0.5,0.059607308357954025,0.4221514165401459],"min":[-0.5,-0.2980365455150604,-0.6311176419258118],"type":"VEC3"},{"bufferView":13,"componentType":5126,"count":48,"max":[0.690161943435669,0.9636827707290649,0.1616053730249405],"min":[-0.7063383460044861,0.6596317291259766,-0.5283346772193909],"type":"VEC3"},{"bufferView":14,"componentType":5126,"count":48,"max":[0.5725833773612976,0.6464365124702454],"min":[0.0055416482500731945,0],"type":"VEC2"},{"bufferView":15,"componentType":5123,"count":72,"max":[47],"min":[0],"type":"SCALAR"},{"bufferView":16,"componentType":5126,"count":96,"max":[0.09375,0.34375,0.09375],"min":[-0.09375,-0.03125,-0.09375],"type":"VEC3"},{"bufferView":17,"componentType":5126,"count":96,"max":[1,1,1],"min":[-1,-1,-1],"type":"VEC3"},{"bufferView":18,"componentType":5126,"count":96,"max":[0.59375,0.625],"min":[0,0],"type":"VEC2"},{"bufferView":19,"componentType":5123,"count":132,"max":[95],"min":[0],"type":"SCALAR"},{"bufferView":20,"componentType":5126,"count":96,"max":[0.09375,0.34375,0.09375],"min":[-0.09375,-0.03125,-0.09375],"type":"VEC3"},{"bufferView":21,"componentType":5126,"count":96,"max":[1,1,1],"min":[-1,-1,-1],"type":"VEC3"},{"bufferView":22,"componentType":5126,"count":96,"max":[0.59375,0.59375],"min":[0,0],"type":"VEC2"},{"bufferView":23,"componentType":5123,"count":132,"max":[95],"min":[0],"type":"SCALAR"},{"bufferView":24,"componentType":5126,"count":96,"max":[0.09375,0.34375,0.09375],"min":[-0.09375,-0.03125,-0.09375],"type":"VEC3"},{"bufferView":25,"componentType":5126,"count":96,"max":[1,1,1],"min":[-1,-1,-1],"type":"VEC3"},{"bufferView":26,"componentType":5126,"count":96,"max":[0.59375,0.59375],"min":[0,0],"type":"VEC2"},{"bufferView":27,"componentType":5123,"count":132,"max":[95],"min":[0],"type":"SCALAR"},{"bufferView":28,"componentType":5126,"count":96,"max":[0.09375,0.34375,0.09375],"min":[-0.09375,-0.03125,-0.09375],"type":"VEC3"},{"bufferView":29,"componentType":5126,"count":96,"max":[1,1,1],"min":[-1,-1,-1],"type":"VEC3"},{"bufferView":30,"componentType":5126,"count":96,"max":[0.59375,0.625],"min":[0,0],"type":"VEC2"},{"bufferView":31,"componentType":5123,"count":132,"max":[95],"min":[0],"type":"SCALAR"},{"bufferView":32,"componentType":5126,"count":96,"max":[0.08437500149011612,0.30937498807907104,0.08437500149011612],"min":[-0.08437500149011612,-0.02812499925494194,-0.08437500149011612],"type":"VEC3"},{"bufferView":33,"componentType":5126,"count":96,"max":[1,1,1],"min":[-1,-1,-1],"type":"VEC3"},{"bufferView":34,"componentType":5126,"count":96,"max":[0.53125,0.53125],"min":[0,0],"type":"VEC2"},{"bufferView":35,"componentType":5123,"count":132,"max":[95],"min":[0],"type":"SCALAR"},{"bufferView":36,"componentType":5126,"count":96,"max":[0.08437500149011612,0.30937498807907104,0.08437500149011612],"min":[-0.08437500149011612,-0.02812499925494194,-0.08437500149011612],"type":"VEC3"},{"bufferView":37,"componentType":5126,"count":96,"max":[1,1,1],"min":[-1,-1,-1],"type":"VEC3"},{"bufferView":38,"componentType":5126,"count":96,"max":[0.53125,0.46875],"min":[0,0],"type":"VEC2"},{"bufferView":39,"componentType":5123,"count":132,"max":[95],"min":[0],"type":"SCALAR"},{"bufferView":40,"componentType":5126,"count":96,"max":[0.08437500149011612,0.30937498807907104,0.08437500149011612],"min":[-0.08437500149011612,-0.02812499925494194,-0.08437500149011612],"type":"VEC3"},{"bufferView":41,"componentType":5126,"count":96,"max":[1,1,1],"min":[-1,-1,-1],"type":"VEC3"},{"bufferView":42,"componentType":5126,"count":96,"max":[0.53125,0.46875],"min":[0,0],"type":"VEC2"},{"bufferView":43,"componentType":5123,"count":132,"max":[95],"min":[0],"type":"SCALAR"},{"bufferView":44,"componentType":5126,"count":96,"max":[0.08437500149011612,0.30937498807907104,0.08437500149011612],"min":[-0.08437500149011612,-0.02812499925494194,-0.08437500149011612],"type":"VEC3"},{"bufferView":45,"componentType":5126,"count":96,"max":[1,1,1],"min":[-1,-1,-1],"type":"VEC3"},{"bufferView":46,"componentType":5126,"count":96,"max":[0.53125,0.53125],"min":[0,0],"type":"VEC2"},{"bufferView":47,"componentType":5123,"count":132,"max":[95],"min":[0],"type":"SCALAR"}],"materials":[{"pbrMetallicRoughness":{"metallicFactor":0,"roughnessFactor":1,"baseColorTexture":{"index":0}},"alphaMode":"MASK","alphaCutoff":0.05,"doubleSided":true},{"pbrMetallicRoughness":{"metallicFactor":0,"roughnessFactor":1,"baseColorTexture":{"index":1}},"alphaMode":"MASK","alphaCutoff":0.05,"doubleSided":true},{"pbrMetallicRoughness":{"metallicFactor":0,"roughnessFactor":1,"baseColorTexture":{"index":2}},"alphaMode":"MASK","alphaCutoff":0.05,"doubleSided":true},{"pbrMetallicRoughness":{"metallicFactor":0,"roughnessFactor":1,"baseColorTexture":{"index":3}},"alphaMode":"MASK","alphaCutoff":0.05,"doubleSided":true},{"pbrMetallicRoughness":{"metallicFactor":0,"roughnessFactor":1,"baseColorTexture":{"index":4}},"alphaMode":"MASK","alphaCutoff":0.05,"doubleSided":true},{"pbrMetallicRoughness":{"metallicFactor":0,"roughnessFactor":1,"baseColorTexture":{"index":5}},"alphaMode":"MASK","alphaCutoff":0.05,"doubleSided":true},{"pbrMetallicRoughness":{"metallicFactor":0,"roughnessFactor":1,"baseColorTexture":{"index":6}},"alphaMode":"MASK","alphaCutoff":0.05,"doubleSided":true},{"pbrMetallicRoughness":{"metallicFactor":0,"roughnessFactor":1,"baseColorTexture":{"index":7}},"alphaMode":"MASK","alphaCutoff":0.05,"doubleSided":true}],"textures":[{"sampler":0,"source":0,"name":"head.png"},{"sampler":1,"source":1,"name":"torso"},{"sampler":2,"source":2,"name":"head_decoration.png"},{"sampler":3,"source":3,"name":"cape"},{"sampler":4,"source":4,"name":"left_leg"},{"sampler":5,"source":5,"name":"right_leg"},{"sampler":6,"source":6,"name":"left_arm"},{"sampler":7,"source":7,"name":"right_arm"}],"samplers":[{"magFilter":9728,"minFilter":9728,"wrapS":33071,"wrapT":33071},{"magFilter":9728,"minFilter":9728,"wrapS":33071,"wrapT":33071},{"magFilter":9728,"minFilter":9728,"wrapS":33071,"wrapT":33071},{"magFilter":9728,"minFilter":9728,"wrapS":33071,"wrapT":33071},{"magFilter":9728,"minFilter":9728,"wrapS":33071,"wrapT":33071},{"magFilter":9728,"minFilter":9728,"wrapS":33071,"wrapT":33071},{"magFilter":9728,"minFilter":9728,"wrapS":33071,"wrapT":33071},{"magFilter":9728,"minFilter":9728,"wrapS":33071,"wrapT":33071}],"images":[{"mimeType":"image/png","uri":"data:image/png;base64,"},{"mimeType":"image/png","uri":"data:image/png;base64,"},{"mimeType":"image/png","uri":"data:image/png;base64,"},{"mimeType":"image/png","uri":"data:image/png;base64,"},{"mimeType":"image/png","uri":"data:image/png;base64,"},{"mimeType":"image/png","uri":"data:image/png;base64,"},{"mimeType":"image/png","uri":"data:image/png;base64,"},{"mimeType":"image/png","uri":"data:image/png;base64,"}],"meshes":[{"primitives":[{"mode":4,"attributes":{"POSITION":0,"NORMAL":1,"TEXCOORD_0":2},"indices":3,"material":0}]},{"primitives":[{"mode":4,"attributes":{"POSITION":4,"NORMAL":5,"TEXCOORD_0":6},"indices":7,"material":1}]},{"primitives":[{"mode":4,"attributes":{"POSITION":8,"NORMAL":9,"TEXCOORD_0":10},"indices":11,"material":2}]},{"primitives":[{"mode":4,"attributes":{"POSITION":12,"NORMAL":13,"TEXCOORD_0":14},"indices":15,"material":3}]},{"primitives":[{"mode":4,"attributes":{"POSITION":16,"NORMAL":17,"TEXCOORD_0":18},"indices":19,"material":4}]},{"primitives":[{"mode":4,"attributes":{"POSITION":20,"NORMAL":21,"TEXCOORD_0":22},"indices":23,"material":4}]},{"primitives":[{"mode":4,"attributes":{"POSITION":24,"NORMAL":25,"TEXCOORD_0":26},"indices":27,"material":5}]},{"primitives":[{"mode":4,"attributes":{"POSITION":28,"NORMAL":29,"TEXCOORD_0":30},"indices":31,"material":5}]},{"primitives":[{"mode":4,"attributes":{"POSITION":32,"NORMAL":33,"TEXCOORD_0":34},"indices":35,"material":6}]},{"primitives":[{"mode":4,"attributes":{"POSITION":36,"NORMAL":37,"TEXCOORD_0":38},"indices":39,"material":6}]},{"primitives":[{"mode":4,"attributes":{"POSITION":40,"NORMAL":41,"TEXCOORD_0":42},"indices":43,"material":7}]},{"primitives":[{"mode":4,"attributes":{"POSITION":44,"NORMAL":45,"TEXCOORD_0":46},"indices":47,"material":7}]}]}